# xmcd
#
# Track frame offsets:
#	151
#	10941
#	33936
#	48298
#	64240
#	75752
#	93041
#	106049
#	121986
#	134557
#
# Disc length: 1970 seconds
#
# Revision: 1
# Processed by: cddbd v1.5.1PL0 Copyright (c) Steve Scherf et al.
# Submitted via: EasyCDDAExtractor 7.0.6.1
#
DISCID=6d07b00a
DTITLE=Various Artist - Cuba Social Club - Beny More
DYEAR=1900
DGENRE=Blues
TTITLE0=Beny Moré - Francisco Guayabal
TTITLE1=Israel Kantor - La vida es un carnaval
TTITLE2=Ñico Saquito - Estoy hecho tierra
TTITLE3=Los Van Van - Chirrin Chirran
TTITLE4=Celeste Mendoza - La ultima rumba
TTITLE5=Compay Segundo - Que lio compay Andres
TTITLE6=Bienvenido Granda - Me extraña
TTITLE7=Los Guaracheros de Oriente - Que me importa
TTITLE8=Chappotin y su Conjunto - Canallon
TTITLE9=Beny Moré - Bonito y sabroso
EXTD=
EXTT0=
EXTT1=
EXTT2=
EXTT3=
EXTT4=
EXTT5=
EXTT6=
EXTT7=
EXTT8=
EXTT9=
PLAYORDER=
